<?xml version="1.0" ?><svg viewBox="0 0 48 48" xmlns="http://www.w3.org/2000/svg" xmlns:xlink="http://www.w3.org/1999/xlink"><defs><style>.cls-1{fill:white;}.cls-2{fill:white;}.cls-3{fill:white;}.cls-4{fill:#26547C;}.cls-5{fill:white;}.cls-6{fill:white;}</style><linearGradient gradientUnits="userSpaceOnUse" id="linear-gradient" x1="23.5" x2="23.5" y1="31.03" y2="46.2"><stop offset="0" stop-color="#666"/><stop offset="1" stop-color="#9d9d9d"/></linearGradient><linearGradient id="linear-gradient-2" x1="23.5" x2="23.5" xlink:href="#linear-gradient" y1="19.8" y2="36.09"/><linearGradient id="linear-gradient-3" x1="23.5" x2="23.5" xlink:href="#linear-gradient" y1="21.75" y2="6.09"/><linearGradient gradientUnits="userSpaceOnUse" id="linear-gradient-4" x1="18.25" x2="28.75" y1="27.28" y2="27.28"><stop offset="0" stop-color="#e9e9e9"/><stop offset="1" stop-color="#b6b6b6"/></linearGradient><linearGradient id="linear-gradient-5" x1="35.23" x2="35.23" xlink:href="#linear-gradient" y1="13.75" y2="22.56"/><linearGradient id="linear-gradient-6" x1="11.77" x2="11.77" xlink:href="#linear-gradient" y1="13.75" y2="22.56"/></defs><title/><g id="icons"><g data-name="Layer 3" id="Layer_3"><path class="cls-1" d="M37.31,26.22,29.22,23a1.52,1.52,0,0,1-1-1.43,4.37,4.37,0,0,0-4.36-4.36h-.78a4.37,4.37,0,0,0-4.36,4.36,1.52,1.52,0,0,1-1,1.43L9.69,26.22a3,3,0,0,0-1.94,2.85v7.64a3.06,3.06,0,0,0,3.07,3H36.18a3.06,3.06,0,0,0,3.07-3V29.07A3,3,0,0,0,37.31,26.22Z"/><path class="cls-2" d="M37.31,26.22,29.22,23a16.71,16.71,0,0,0-11.44,0L9.69,26.22a3,3,0,0,0-1.94,2.85v.43a3.06,3.06,0,0,0,3.07,3H36.18a3.06,3.06,0,0,0,3.07-3v-.43A3,3,0,0,0,37.31,26.22Z"/><path class="cls-3" d="M38.69,13.53c-3.75-3.36-9.29-5.28-15.2-5.28S12,10.17,8.29,13.53c-1.25,1.12-2,4.62-1.24,7a4.08,4.08,0,0,0,.26.69,3.27,3.27,0,0,0,2.84,2.25,3.78,3.78,0,0,0,1.17-.2L15,22.18c1.82-.56,1.54-2.41,1.44-3s-.11-.88-.14-1.22c-.09-1.44.3-1.73,1.52-2.09a19.4,19.4,0,0,1,5.71-.61,19.33,19.33,0,0,1,5.71.61c1.23.36,1.63.65,1.52,2.12a11.28,11.28,0,0,1-.14,1.19c-.09.61-.37,2.46,1.45,3l3.64,1.13c2.36.77,3.42-.8,4-2a4,4,0,0,0,.24-.64C40.7,18.21,40,14.66,38.69,13.53Z"/><ellipse class="cls-4" cx="23.5" cy="27.28" rx="5.25" ry="2.86"/><path class="cls-5" d="M30.59,19.16c-.09.61-.37,2.46,1.45,3l3.64,1.13c2.36.77,3.42-.8,4-2a4,4,0,0,0,.24-.64L30.73,18A11.28,11.28,0,0,1,30.59,19.16Z"/><path class="cls-6" d="M10.15,23.51a3.78,3.78,0,0,0,1.17-.2L15,22.18c1.82-.56,1.54-2.41,1.44-3s-.11-.88-.14-1.22L7.05,20.57a4.08,4.08,0,0,0,.26.69A3.27,3.27,0,0,0,10.15,23.51Z"/></g></g></svg>